# xmcd
#
# Track frame offsets:
#	150
#	9008
#	18938
#	27848
#	38206
#	49209
#	57699
#	71919
#	85329
#	96152
#	106705
#	117910
#
# Disc length: 1826 seconds
#
# Revision: 1
# Processed by: cddbd v1.5.2PL0 Copyright (c) Steve Scherf et al.
# Submitted via: audiograbber 1.83.01
#
DISCID=9507200c
DTITLE=Boots Randolph - Yakety Sax!
DYEAR=1963
DGENRE=Country
TTITLE0=Yakety Sax
TTITLE1=Walk Right In
TTITLE2=If You've Got The Money (I've Got The Time)
TTITLE3=Cotton Fields
TTITLE4=Charlie Brown
TTITLE5=Cacklin' Sax
TTITLE6=Smoke Gets In Your Eyes
TTITLE7=I Can't Stop Loving You
TTITLE8=Lonely Street
TTITLE9=It Keeps Right On A Hurtin'
TTITLE10=I Fall To Pieces
TTITLE11=I Really Don't Want To Know
EXTD=
EXTT0=
EXTT1=
EXTT2=
EXTT3=
EXTT4=
EXTT5=
EXTT6=
EXTT7=
EXTT8=
EXTT9=
EXTT10=
EXTT11=
PLAYORDER=
